<?xml version="1.0" encoding="UTF-8"?>
<svg id="Layer_2" data-name="Layer 2" xmlns="http://www.w3.org/2000/svg" viewBox="0 0 56.27 59.5">
  <defs>
    <style>
      .cls-1 {
        fill: #4a2d85;
      }

      .cls-1, .cls-2, .cls-3, .cls-4, .cls-5 {
        stroke-width: 0px;
      }

      .cls-2 {
        fill: #ee478b;
      }

      .cls-3 {
        fill: #331a38;
      }

      .cls-4 {
        fill: #41b59f;
      }

      .cls-5 {
        fill: #ffc959;
      }
    </style>
  </defs>
  <g id="Layer_1-2" data-name="Layer 1">
    <g>
      <path class="cls-3" d="m49.14,0l-12.87,45.47L23.31,0h-8.17l1.35,4.61c.44.78.77,2.2.96,2.96.24.47.45,1.13.61,1.74.1.23.19.46.25.69.01.03.03.05.05.08v-.15l14.61,49.57h1.13L48.88,7.23v51.75h7.39V0h-7.13Z"/>
      <g>
        <rect class="cls-3" x="0" y="0" width="19.08" height="10.08" rx="2.09" ry="2.09"/>
        <rect class="cls-1" x="0" y="12.25" width="19.08" height="10.08" rx="2.09" ry="2.09"/>
        <rect class="cls-4" x="0" y="24.5" width="19.08" height="10.08" rx="2.09" ry="2.09"/>
        <rect class="cls-5" x="0" y="36.75" width="19.08" height="10.08" rx="2.09" ry="2.09"/>
        <rect class="cls-2" x="0" y="49" width="19.08" height="10.08" rx="2.09" ry="2.09"/>
      </g>
    </g>
  </g>
</svg>